<mxfile host="app.diagrams.net" modified="2023-09-11T13:34:50.045Z" agent="Mozilla/5.0 (Macintosh; Intel Mac OS X 10_15_7) AppleWebKit/537.36 (KHTML, like Gecko) Chrome/116.0.0.0 Safari/537.36" etag="hpdCg-OANhH40skR5fHb" version="21.7.4" type="github">
  <diagram id="3228e29e-7158-1315-38df-8450db1d8a1d" name="Page-1">
    <mxGraphModel dx="466" dy="457" grid="0" gridSize="10" guides="1" tooltips="1" connect="1" arrows="1" fold="1" page="1" pageScale="1" pageWidth="600" pageHeight="300" background="#EFF1F3" math="0" shadow="0">
      <root>
        <mxCell id="0" />
        <mxCell id="1" parent="0" />
        <mxCell id="aMB2SkQLuwcF9kNnRCJI-1" value="&lt;div style=&quot;font-family: Menlo, Monaco, &amp;quot;Courier New&amp;quot;, monospace; font-size: 16px; line-height: 24px;&quot;&gt;&lt;div style=&quot;&quot;&gt;&lt;br&gt;&lt;/div&gt;&lt;/div&gt;" style="rounded=1;whiteSpace=wrap;html=1;strokeWidth=5;fontSize=30;strokeColor=none;fillColor=#9AC7BF;align=left;" parent="1" vertex="1">
          <mxGeometry x="117" y="348" width="209" height="203" as="geometry" />
        </mxCell>
        <mxCell id="CNL9ZWAu0hiXVesVUDJu-1" value="&lt;div style=&quot;font-family: Menlo, Monaco, &amp;quot;Courier New&amp;quot;, monospace; font-size: 18px; line-height: 24px;&quot;&gt;&lt;div style=&quot;&quot;&gt;&lt;span style=&quot;font-family: menlo, monospace, Tahoma, 微软雅黑, 幼圆; color: rgb(26, 26, 26); background-color: initial;&quot;&gt;{&lt;/span&gt;&lt;/div&gt;&lt;font style=&quot;font-size: 18px;&quot; color=&quot;#1a1a1a&quot;&gt;&lt;div style=&quot;&quot;&gt;&lt;span style=&quot;background-color: initial; font-family: menlo, monospace, Tahoma, 微软雅黑, 幼圆;&quot;&gt;&amp;nbsp; &amp;nbsp;&amp;nbsp;&lt;/span&gt;&lt;span style=&quot;background-color: initial; box-sizing: border-box; font-weight: bold; font-family: menlo, monospace, Tahoma, 微软雅黑, 幼圆;&quot; class=&quot;json_key&quot;&gt;&quot;hobby&quot;&lt;/span&gt;&lt;span style=&quot;background-color: initial; font-family: menlo, monospace, Tahoma, 微软雅黑, 幼圆;&quot;&gt;:&lt;/span&gt;&lt;span style=&quot;background-color: initial; box-sizing: border-box; font-family: menlo, monospace, Tahoma, 微软雅黑, 幼圆;&quot; data-size=&quot;4&quot; data-type=&quot;array&quot;&gt;&lt;span style=&quot;box-sizing: border-box; display: inline-block; font-variant-numeric: normal; font-variant-east-asian: normal; font-variant-alternates: normal; font-kerning: auto; font-optical-sizing: auto; font-feature-settings: normal; font-variation-settings: normal; font-stretch: normal; line-height: 1; font-family: FontAwesome; font-size: inherit; text-rendering: auto; -webkit-font-smoothing: antialiased; cursor: pointer;&quot; class=&quot;fa fa-minus-square-o&quot;&gt;&lt;/span&gt;[&lt;/span&gt;&lt;/div&gt;&lt;span style=&quot;box-sizing: border-box; font-family: menlo, monospace, Tahoma, 微软雅黑, 幼圆;&quot; data-size=&quot;4&quot; data-type=&quot;array&quot;&gt;&lt;div style=&quot;&quot;&gt;&lt;span style=&quot;background-color: initial;&quot;&gt;&amp;nbsp; &amp;nbsp; &amp;nbsp; &amp;nbsp;&amp;nbsp;&lt;/span&gt;&lt;span style=&quot;background-color: initial; box-sizing: border-box; font-weight: bold;&quot; class=&quot;json_string&quot;&gt;&quot;唱&quot;&lt;/span&gt;&lt;span style=&quot;background-color: initial;&quot;&gt;,&lt;/span&gt;&lt;/div&gt;&lt;div style=&quot;&quot;&gt;&lt;span style=&quot;background-color: initial;&quot;&gt;&amp;nbsp; &amp;nbsp; &amp;nbsp; &amp;nbsp;&amp;nbsp;&lt;/span&gt;&lt;span style=&quot;background-color: initial; box-sizing: border-box; font-weight: bold;&quot; class=&quot;json_string&quot;&gt;&quot;跳&quot;&lt;/span&gt;&lt;span style=&quot;background-color: initial;&quot;&gt;,&lt;/span&gt;&lt;/div&gt;&lt;div style=&quot;&quot;&gt;&lt;span style=&quot;background-color: initial;&quot;&gt;&amp;nbsp; &amp;nbsp; &amp;nbsp; &amp;nbsp;&amp;nbsp;&lt;/span&gt;&lt;span style=&quot;background-color: initial; box-sizing: border-box; font-weight: bold;&quot; class=&quot;json_string&quot;&gt;&quot;read&quot;&lt;/span&gt;&lt;/div&gt;&lt;div style=&quot;&quot;&gt;&lt;span style=&quot;background-color: initial;&quot;&gt;&amp;nbsp; &amp;nbsp; ]&lt;/span&gt;&lt;/div&gt;&lt;/span&gt;&lt;span style=&quot;font-family: menlo, monospace, Tahoma, 微软雅黑, 幼圆;&quot;&gt;&lt;div style=&quot;&quot;&gt;&lt;span style=&quot;background-color: initial;&quot;&gt;}&lt;/span&gt;&lt;/div&gt;&lt;/span&gt;&lt;/font&gt;&lt;/div&gt;" style="text;html=1;strokeColor=none;fillColor=none;align=left;verticalAlign=middle;whiteSpace=wrap;rounded=0;labelBackgroundColor=none;fontColor=#000000;" parent="1" vertex="1">
          <mxGeometry x="143" y="394" width="165" height="114" as="geometry" />
        </mxCell>
        <mxCell id="CNL9ZWAu0hiXVesVUDJu-5" value="" style="endArrow=classic;html=1;rounded=0;fontColor=#000000;strokeWidth=5;strokeColor=#4A919B;" parent="1" edge="1">
          <mxGeometry width="50" height="50" relative="1" as="geometry">
            <mxPoint x="340" y="449.29" as="sourcePoint" />
            <mxPoint x="475" y="449.29" as="targetPoint" />
          </mxGeometry>
        </mxCell>
        <mxCell id="CNL9ZWAu0hiXVesVUDJu-7" value="&lt;font color=&quot;#4d4d4d&quot; style=&quot;font-size: 18px;&quot;&gt;去掉格式数据&lt;/font&gt;" style="text;html=1;strokeColor=none;fillColor=none;align=center;verticalAlign=middle;whiteSpace=wrap;rounded=0;labelBackgroundColor=none;fontColor=#000000;" parent="1" vertex="1">
          <mxGeometry x="336" y="413" width="127" height="30" as="geometry" />
        </mxCell>
        <mxCell id="BXTFkr8dTkdgocNcUE_s-1" value="&lt;div style=&quot;font-family: Menlo, Monaco, &amp;quot;Courier New&amp;quot;, monospace; font-size: 16px; line-height: 24px;&quot;&gt;&lt;div style=&quot;&quot;&gt;&lt;br&gt;&lt;/div&gt;&lt;/div&gt;" style="rounded=1;whiteSpace=wrap;html=1;strokeWidth=5;fontSize=30;strokeColor=none;fillColor=#9AC7BF;align=left;" parent="1" vertex="1">
          <mxGeometry x="493" y="348" width="209" height="203" as="geometry" />
        </mxCell>
        <mxCell id="BXTFkr8dTkdgocNcUE_s-2" value="&lt;div style=&quot;font-family: Menlo, Monaco, &amp;quot;Courier New&amp;quot;, monospace; font-size: 20px; line-height: 24px;&quot;&gt;&lt;div style=&quot;&quot;&gt;&lt;span style=&quot;font-family: menlo, monospace, Tahoma, 微软雅黑, 幼圆; color: rgb(26, 26, 26); background-color: initial;&quot;&gt;&amp;nbsp; &amp;nbsp; &amp;nbsp; &amp;nbsp;&amp;nbsp;&lt;/span&gt;&lt;span style=&quot;font-family: menlo, monospace, Tahoma, 微软雅黑, 幼圆; color: rgb(26, 26, 26); background-color: initial; box-sizing: border-box; font-weight: bold;&quot; class=&quot;json_string&quot;&gt;唱&lt;/span&gt;&lt;br&gt;&lt;/div&gt;&lt;font style=&quot;font-size: 20px;&quot; color=&quot;#1a1a1a&quot;&gt;&lt;span style=&quot;box-sizing: border-box; font-family: menlo, monospace, Tahoma, 微软雅黑, 幼圆;&quot; data-size=&quot;4&quot; data-type=&quot;array&quot;&gt;&lt;div style=&quot;&quot;&gt;&lt;span style=&quot;background-color: initial;&quot;&gt;&amp;nbsp; &amp;nbsp; &amp;nbsp; &amp;nbsp;&amp;nbsp;&lt;/span&gt;&lt;span style=&quot;background-color: initial; box-sizing: border-box; font-weight: bold;&quot; class=&quot;json_string&quot;&gt;跳&lt;/span&gt;&lt;/div&gt;&lt;div style=&quot;&quot;&gt;&lt;span style=&quot;background-color: initial;&quot;&gt;&amp;nbsp; &amp;nbsp; &amp;nbsp; &amp;nbsp;&amp;nbsp;&lt;/span&gt;&lt;span style=&quot;background-color: initial; box-sizing: border-box; font-weight: bold;&quot; class=&quot;json_string&quot;&gt;read&lt;/span&gt;&lt;/div&gt;&lt;/span&gt;&lt;/font&gt;&lt;/div&gt;" style="text;html=1;strokeColor=none;fillColor=none;align=left;verticalAlign=middle;whiteSpace=wrap;rounded=0;labelBackgroundColor=none;fontColor=#000000;" parent="1" vertex="1">
          <mxGeometry x="522" y="370.75" width="164" height="157.5" as="geometry" />
        </mxCell>
        <mxCell id="BXTFkr8dTkdgocNcUE_s-3" value="&lt;div style=&quot;font-family: Menlo, Monaco, &amp;quot;Courier New&amp;quot;, monospace; line-height: 24px;&quot;&gt;&lt;div style=&quot;&quot;&gt;&lt;span style=&quot;background-color: initial; font-family: menlo, monospace, Tahoma, 微软雅黑, 幼圆; font-weight: bold;&quot;&gt;&lt;font style=&quot;font-size: 19px;&quot; color=&quot;#ffffff&quot;&gt;hobby&lt;/font&gt;&lt;/span&gt;&lt;br&gt;&lt;/div&gt;&lt;/div&gt;" style="text;html=1;strokeColor=none;fillColor=none;align=left;verticalAlign=middle;whiteSpace=wrap;rounded=0;labelBackgroundColor=none;fontColor=#000000;" parent="1" vertex="1">
          <mxGeometry x="536" y="433" width="53" height="33" as="geometry" />
        </mxCell>
        <mxCell id="BXTFkr8dTkdgocNcUE_s-9" value="" style="endArrow=classic;html=1;rounded=0;fontColor=#000000;strokeWidth=5;strokeColor=#4A919B;" parent="1" edge="1">
          <mxGeometry width="50" height="50" relative="1" as="geometry">
            <mxPoint x="713" y="450.79" as="sourcePoint" />
            <mxPoint x="848" y="450.79" as="targetPoint" />
          </mxGeometry>
        </mxCell>
        <mxCell id="BXTFkr8dTkdgocNcUE_s-10" value="&lt;font color=&quot;#4d4d4d&quot; style=&quot;font-size: 18px;&quot;&gt;字段名用编号表示&lt;/font&gt;" style="text;html=1;strokeColor=none;fillColor=none;align=center;verticalAlign=middle;whiteSpace=wrap;rounded=0;labelBackgroundColor=none;fontColor=#000000;" parent="1" vertex="1">
          <mxGeometry x="698" y="415" width="166" height="30" as="geometry" />
        </mxCell>
        <mxCell id="BXTFkr8dTkdgocNcUE_s-11" value="&lt;div style=&quot;font-family: Menlo, Monaco, &amp;quot;Courier New&amp;quot;, monospace; font-size: 16px; line-height: 24px;&quot;&gt;&lt;div style=&quot;&quot;&gt;&lt;br&gt;&lt;/div&gt;&lt;/div&gt;" style="rounded=1;whiteSpace=wrap;html=1;strokeWidth=5;fontSize=30;strokeColor=none;fillColor=#9AC7BF;align=left;" parent="1" vertex="1">
          <mxGeometry x="866" y="349.5" width="209" height="203" as="geometry" />
        </mxCell>
        <mxCell id="BXTFkr8dTkdgocNcUE_s-13" value="&lt;div style=&quot;font-family: Menlo, Monaco, &amp;quot;Courier New&amp;quot;, monospace; line-height: 24px;&quot;&gt;&lt;div style=&quot;&quot;&gt;&lt;span style=&quot;background-color: initial; font-family: menlo, monospace, Tahoma, 微软雅黑, 幼圆; font-weight: bold;&quot;&gt;&lt;font style=&quot;font-size: 24px;&quot; color=&quot;#ffffff&quot;&gt;1&lt;/font&gt;&lt;/span&gt;&lt;br&gt;&lt;/div&gt;&lt;/div&gt;" style="text;html=1;strokeColor=none;fillColor=none;align=left;verticalAlign=middle;whiteSpace=wrap;rounded=0;labelBackgroundColor=none;fontColor=#000000;" parent="1" vertex="1">
          <mxGeometry x="931" y="434.5" width="53" height="33" as="geometry" />
        </mxCell>
        <mxCell id="BXTFkr8dTkdgocNcUE_s-15" value="&lt;div style=&quot;font-family: Menlo, Monaco, &amp;quot;Courier New&amp;quot;, monospace; font-size: 20px; line-height: 24px;&quot;&gt;&lt;div style=&quot;&quot;&gt;&lt;span style=&quot;font-family: menlo, monospace, Tahoma, 微软雅黑, 幼圆; color: rgb(26, 26, 26); background-color: initial;&quot;&gt;&amp;nbsp; &amp;nbsp; &amp;nbsp; &amp;nbsp;&amp;nbsp;&lt;/span&gt;&lt;span style=&quot;font-family: menlo, monospace, Tahoma, 微软雅黑, 幼圆; color: rgb(26, 26, 26); background-color: initial; box-sizing: border-box; font-weight: bold;&quot; class=&quot;json_string&quot;&gt;唱&lt;/span&gt;&lt;br&gt;&lt;/div&gt;&lt;font style=&quot;font-size: 20px;&quot; color=&quot;#1a1a1a&quot;&gt;&lt;span style=&quot;box-sizing: border-box; font-family: menlo, monospace, Tahoma, 微软雅黑, 幼圆;&quot; data-size=&quot;4&quot; data-type=&quot;array&quot;&gt;&lt;div style=&quot;&quot;&gt;&lt;span style=&quot;background-color: initial;&quot;&gt;&amp;nbsp; &amp;nbsp; &amp;nbsp; &amp;nbsp;&amp;nbsp;&lt;/span&gt;&lt;span style=&quot;background-color: initial; box-sizing: border-box; font-weight: bold;&quot; class=&quot;json_string&quot;&gt;跳&lt;/span&gt;&lt;/div&gt;&lt;div style=&quot;&quot;&gt;&lt;span style=&quot;background-color: initial;&quot;&gt;&amp;nbsp; &amp;nbsp; &amp;nbsp; &amp;nbsp;&amp;nbsp;&lt;/span&gt;&lt;span style=&quot;background-color: initial; box-sizing: border-box; font-weight: bold;&quot; class=&quot;json_string&quot;&gt;read&lt;/span&gt;&lt;/div&gt;&lt;/span&gt;&lt;/font&gt;&lt;/div&gt;" style="text;html=1;strokeColor=none;fillColor=none;align=left;verticalAlign=middle;whiteSpace=wrap;rounded=0;labelBackgroundColor=none;fontColor=#000000;" parent="1" vertex="1">
          <mxGeometry x="894" y="370.75" width="164" height="157.5" as="geometry" />
        </mxCell>
      </root>
    </mxGraphModel>
  </diagram>
</mxfile>
